<?xml version="1.0" encoding="utf-8"?>
<!-- Generator: Adobe Illustrator 21.0.2, SVG Export Plug-In . SVG Version: 6.00 Build 0)  -->
<svg version="1.1" id="Layer_1" xmlns="http://www.w3.org/2000/svg" xmlns:xlink="http://www.w3.org/1999/xlink" x="0px" y="0px"
	 viewBox="0 0 266.7 69" style="enable-background:new 0 0 266.7 69;" xml:space="preserve">
<style type="text/css">
	.st0{fill:#7AC15E;}
	.st1{fill:#636467;}
</style>
<g>
	<g>
		<path class="st0" d="M225.7,44c-0.7-1.3-1-3.2-1-5.6c0-2.6,0.5-4.8,1.5-6.5c1-1.7,2.5-2.5,4.6-2.5c1.3,0,2.5,0.3,3.6,0.8v12.4
			c0,0.5-0.1,1-0.3,1.5c2.3,0,4.4-0.1,5.9-0.2v-28h-8.9v3.8l2.1,0.1c0.8,0.1,1.2,0.4,1.2,1.2v4.8c-1.2-0.4-2.6-0.6-3.9-0.6
			c-3.7,0-6.6,1.2-8.6,3.7c-2.1,2.5-3.1,5.8-3.1,10c0,1.8,0.2,3.4,0.6,4.9C221.5,43.9,223.7,44,225.7,44z"/>
		<path class="st0" d="M192.5,31.3v11.1c0,0.1,0,0.1,0,0.2c0.2,0,0.5,0,0.7,0c1.7,0.1,3.4,0.2,5.1,0.3c-0.1-0.5-0.1-1.1-0.1-1.8V26
			h-8.4v3.9l1.5,0.1C192.1,30,192.5,30.5,192.5,31.3z"/>
		<path class="st0" d="M206.6,30.3c0.2,0.2,0.3,0.6,0.3,1.1v10.1c0,0.6-0.1,1.2-0.3,1.8c2,0.1,4,0.2,6,0.3V26h-8.4v3.9l1.5,0.1
			C206.1,30,206.4,30.1,206.6,30.3z"/>
		<path class="st0" d="M165.4,21.1v19.5c1.9,0.3,3.7,0.6,5.6,0.8v-8.4c0-1.1,0.4-1.9,1.3-2.6c0.9-0.7,1.9-1,3-1
			c3.6,0,5.4,2.7,5.4,8.1c0,1.7-0.2,3.2-0.5,4.4c1.8,0.1,3.8,0.2,5.8,0.3c0.4-1.6,0.6-3.4,0.6-5.5c0-3.7-0.9-6.5-2.6-8.6
			c-1.8-2-4.1-3-7.2-3c-2.4,0-4.4,0.7-5.8,2V15.9h-8.4v4l1.7,0.1C165,20,165.4,20.4,165.4,21.1z"/>
		<path class="st0" d="M134.4,34.9c0.2-1.3,0.6-2.4,1.1-3.3c0.9-1.4,2.2-2.1,4.1-2.1c1.8,0,3.2,0.7,3.9,2.2c0.6,1.2,1,2.8,1.1,4.8
			c2.1,0.4,4,0.7,5.9,1.1c0-0.1,0-0.1,0-0.2c0-2.1-0.3-3.9-0.8-5.5c-0.5-1.6-1.2-2.7-1.9-3.6c-0.8-0.8-1.8-1.5-3.1-2.2
			c-1.3-0.6-3-0.9-4.9-0.9c-2.8,0-5.3,0.9-7.5,2.6c-1.2,0.9-2.1,2.3-2.8,4c-0.3,0.7-0.5,1.5-0.7,2.4
			C130.7,34.4,132.6,34.7,134.4,34.9z"/>
		<path class="st0" d="M116.9,30.3c0.2,0.2,0.3,0.6,0.3,1.1v1.8c2,0.1,3.9,0.3,5.7,0.4V26h-8.6v4L116,30
			C116.4,30,116.7,30.1,116.9,30.3z"/>
		<path class="st0" d="M119.5,22.8c1.1,0,2-0.3,2.7-1c0.7-0.7,1-1.5,1-2.5c0-1-0.3-1.9-1-2.6c-0.7-0.7-1.6-1-2.7-1
			c-1.1,0-2,0.3-2.6,1c-0.7,0.7-1,1.5-1,2.6c0,1,0.3,1.9,1,2.5C117.5,22.5,118.4,22.8,119.5,22.8z"/>
		<path class="st0" d="M91.3,32.4c1,0,2.1,0,3.1,0c0.1-0.1,0.1-0.3,0.2-0.4c1-1.7,2.5-2.5,4.6-2.5c1.3,0,2.5,0.3,3.6,0.8v2.4
			c1.9,0.1,3.8,0.1,5.6,0.2V15.9h-8.9v3.8l2.1,0.1c0.8,0.1,1.2,0.4,1.2,1.2v4.8c-1.2-0.4-2.6-0.6-3.9-0.6c-3.7,0-6.6,1.2-8.6,3.7
			c-0.8,1-1.5,2.1-2,3.4C89.4,32.4,90.3,32.4,91.3,32.4z"/>
		<path class="st0" d="M75.1,30.3c0.2,0.2,0.3,0.6,0.3,1.1v1.1c1.9,0,3.8-0.1,5.7-0.1V26h-8.4v3.9l1.5,0.1
			C74.6,30,75,30.1,75.1,30.3z"/>
		<path class="st0" d="M61,31.3v1.7c1.8-0.1,3.8-0.2,5.7-0.2V26h-8.4v3.9l1.5,0.1C60.6,30,61,30.5,61,31.3z"/>
		<path class="st0" d="M44.1,34.1c1.8-0.1,3.7-0.3,5.7-0.4V30h5.9l0.5-4h-6.4v-5.1h-3.1c-0.6,1.7-1.3,3.1-2.1,4
			c-0.8,0.9-1.9,1.5-3.4,1.6L40.7,30h3.4V34.1z"/>
		<path class="st0" d="M30.6,35.5c-1-0.3-1.9-0.6-2.7-1c-0.5-0.3-0.9-0.6-1.1-1c-0.2-0.4-0.4-1-0.4-1.7s0.3-1.3,1-1.8
			c0.7-0.5,1.5-0.7,2.6-0.7s2,0.1,2.8,0.4c0.7,0.3,1.1,0.8,1.1,1.6v2l4.3-0.3v-5.8c-2.6-1.3-5.3-1.9-7.9-1.9c-2.7,0-4.9,0.7-6.6,2
			C21.9,28.6,21,30.5,21,33c0,1.5,0.3,2.7,0.9,3.7C24.2,36.3,27.1,35.9,30.6,35.5z"/>
	</g>
	<g>
		<path class="st1" d="M249.5,51.8c-1.1,0-2-0.3-2.6-0.9c-0.6-0.6-0.9-1.4-0.9-2.4s0.3-1.8,0.9-2.5c0.6-0.7,1.5-1,2.5-1
			c1.1,0,1.9,0.3,2.6,0.9c0.6,0.6,1,1.4,1,2.4c0,1-0.3,1.8-0.9,2.5C251.5,51.5,250.6,51.8,249.5,51.8z"/>
		<path class="st1" d="M240,46.1v-0.2c-1.8,0.1-4,0.2-6.7,0.2c-0.1,0.1-0.2,0.2-0.3,0.3c-0.9,0.8-2,1.1-3.3,1.1
			c-1.5,0-2.6-0.5-3.5-1.5c-2.1,0-4.3-0.1-6.7-0.2c0.3,0.8,0.6,1.5,1.1,2.2c1.5,2.4,4,3.6,7.7,3.6c2.9,0,5.1-1.2,6.5-3.5l0.1,0v2.8
			h7.8v-3.8l-1.7-0.1C240.4,47.2,240,46.8,240,46.1z"/>
		<path class="st1" d="M212.8,46.8c-0.2-0.2-0.2-0.5-0.2-1v-0.2c-2.2-0.1-4.4-0.2-6.6-0.3c-0.2,0.2-0.3,0.4-0.5,0.6
			c-0.9,0.9-2.1,1.4-3.6,1.4s-2.5-0.4-3-1.3c-0.2-0.3-0.3-0.7-0.4-1.1c-1.8-0.1-3.6-0.2-5.4-0.3c-0.2,0-0.4,0-0.6,0
			c0.4,4.7,2.8,7.1,7.4,7.1c3.4,0,6-1.2,7.8-3.7v3.1h7.8v-3.8l-1.7-0.1C213.3,47.1,213,47,212.8,46.8z"/>
		<path class="st1" d="M179.9,44c-0.9,2.3-2.4,3.5-4.7,3.5c-1.6,0-3-0.3-4.2-1v-3c-1.8-0.2-3.7-0.5-5.6-0.8v7c1,0.6,2.5,1.1,4.3,1.5
			c1.8,0.4,3.6,0.6,5.3,0.6c5.7,0,9.2-2.5,10.8-7.4C183.7,44.2,181.8,44.1,179.9,44z"/>
		<path class="st1" d="M144.6,38.5c0,0.2,0,0.4,0,0.6c0,5.6-1.7,8.4-5.2,8.4c-1.1,0-2-0.3-2.7-0.8c-1.7-1.2-2.5-4-2.5-8.5
			c0-0.5,0-1,0.1-1.4c-1.8-0.2-3.7-0.5-5.7-0.7c-0.1,0.9-0.2,1.8-0.2,2.8c0,4.2,0.9,7.4,2.8,9.6c1.9,2.2,4.5,3.2,7.8,3.2
			c3.3,0,6.1-1.1,8.2-3.4c1.9-2.1,3-5,3.2-8.8C148.6,39.3,146.7,38.9,144.6,38.5z"/>
		<path class="st1" d="M122.9,35.6c-1.8-0.2-3.7-0.3-5.7-0.4v10.6c0,0.9-0.5,1.4-1.4,1.5l-1.6,0.1v3.6h11.4v-3.8l-2.7-0.1V35.6z"/>
		<path class="st1" d="M108.5,46.1V34.7c-1.8-0.1-3.7-0.1-5.6-0.2v9.1c0,1.1-0.4,2-1.3,2.8c-0.9,0.8-2,1.1-3.3,1.1
			c-3.5,0-5.2-2.7-5.2-8.1c0-1.9,0.3-3.6,0.8-5c-0.9,0-1.7,0-2.6,0c-1.1,0-2.2,0-3.3,0c-0.5,1.7-0.8,3.5-0.8,5.6
			c0,3.2,0.7,5.9,2,8.1c1.5,2.4,4,3.6,7.7,3.6c2.9,0,5.1-1.2,6.5-3.5l0.1,0v2.8h7.8v-3.8l-1.7-0.1C108.9,47.2,108.5,46.8,108.5,46.1
			z"/>
		<path class="st1" d="M81.3,46.8c-0.2-0.2-0.2-0.5-0.2-1V34.5c-2,0-3.9,0.1-5.7,0.1v8c0,1.3-0.5,2.4-1.4,3.4
			c-0.9,0.9-2.1,1.4-3.6,1.4s-2.5-0.4-3-1.3c-0.5-0.9-0.7-2.1-0.7-3.8v-7.3c-2,0.1-3.9,0.1-5.7,0.2v8.4c0,5.5,2.5,8.3,7.4,8.3
			c3.4,0,6-1.2,7.8-3.7v3.1H84v-3.8l-1.7-0.1C81.8,47.1,81.5,47,81.3,46.8z"/>
		<path class="st1" d="M53,47.4c-1.1,0-1.9-0.3-2.4-0.8c-0.5-0.6-0.8-1.5-0.8-3v-7.9c-2,0.1-3.9,0.3-5.7,0.4v7.7c0,1,0,1.7,0,2.2
			c0,0.5,0.2,1.2,0.4,2c0.3,0.9,0.6,1.5,1.1,2c0.5,0.4,1.2,0.9,2.2,1.2c1,0.4,2.2,0.6,3.6,0.6c2.5,0,4.5-0.6,6.1-1.7l-1.4-3.7
			C55.2,47.1,54.1,47.4,53,47.4z"/>
		<path class="st1" d="M35.3,38.1c-0.8-0.4-1.5-0.7-2-0.9c-0.1,0-0.1,0-0.2-0.1c-4.3,0.5-7.8,1-10.5,1.4c0.3,0.3,0.5,0.5,0.9,0.7
			c0.8,0.5,1.6,0.9,2.3,1.2c0.7,0.3,1.3,0.5,1.9,0.6c0.6,0.2,1.2,0.3,1.8,0.5c0.6,0.2,1.2,0.3,1.6,0.5c0.4,0.2,0.9,0.5,1.4,0.9
			c0.5,0.4,0.7,1,0.7,1.7c0,2-1.3,2.9-4,2.9c-2.7,0-4-0.7-4-2.1v-2.3l-4.3,0.3v6.7c2,1,4.9,1.5,8.8,1.5c2.7,0,4.9-0.7,6.6-2
			c1.7-1.4,2.6-3.2,2.6-5.6c0-1.9-0.6-3.4-1.7-4.6C36.8,39,36.2,38.6,35.3,38.1z"/>
	</g>
</g>
</svg>
