<svg id="Layer_1" data-name="Layer 1" xmlns="http://www.w3.org/2000/svg" viewBox="0 0 266.67 69"><defs><style>.cls-1{opacity:0.6;}.cls-2{fill:#fff;}</style></defs><title>studiobud-logo-white</title><g class="cls-1"><path class="cls-2" d="M225.67,44a12.31,12.31,0,0,1-1-5.59A12.86,12.86,0,0,1,226.09,32a5,5,0,0,1,4.63-2.54,8.89,8.89,0,0,1,3.65.77V42.61a3.5,3.5,0,0,1-.32,1.49c2.35,0,4.36-.09,5.94-.23v-28h-8.93v3.79l2.06.14q1.25.1,1.25,1.15v4.85a13.32,13.32,0,0,0-3.94-.58A10.57,10.57,0,0,0,221.82,29q-3.09,3.74-3.1,10a17.87,17.87,0,0,0,.63,4.89C221.54,43.92,223.66,44,225.67,44Z"/><path class="cls-2" d="M192.47,31.33V42.42c0,.07,0,.14,0,.22l.7,0,5.12.25a12.79,12.79,0,0,1-.12-1.75V26h-8.45v3.94l1.54.1C192.07,30,192.47,30.47,192.47,31.33Z"/><path class="cls-2" d="M206.6,30.35a1.7,1.7,0,0,1,.26,1.08V41.56a4.8,4.8,0,0,1-.32,1.77l6,.27V26h-8.45v3.94l1.54.1A1.31,1.31,0,0,1,206.6,30.35Z"/><path class="cls-2" d="M165.44,21.11V40.66c1.88.34,3.72.62,5.57.83V33.11a3.14,3.14,0,0,1,1.3-2.59,4.79,4.79,0,0,1,3-1q5.37,0,5.38,8.11a18.08,18.08,0,0,1-.47,4.43l5.79.27a23.53,23.53,0,0,0,.58-5.46q0-5.52-2.64-8.57a9,9,0,0,0-7.15-3,8.17,8.17,0,0,0-5.81,2V15.88h-8.45v4l1.68.1Q165.44,20,165.44,21.11Z"/><path class="cls-2" d="M134.39,34.9a8.94,8.94,0,0,1,1.1-3.33,4.42,4.42,0,0,1,4.06-2.11,4.11,4.11,0,0,1,3.94,2.21,12,12,0,0,1,1.12,4.82c2.09.37,4,.75,5.9,1.12,0-.08,0-.15,0-.23a17.12,17.12,0,0,0-.79-5.5,10,10,0,0,0-1.92-3.55,10,10,0,0,0-3.12-2.16,11.42,11.42,0,0,0-4.87-.94,12.16,12.16,0,0,0-7.54,2.59,9.43,9.43,0,0,0-2.83,4,13.64,13.64,0,0,0-.69,2.38Q131.7,34.54,134.39,34.9Z"/><path class="cls-2" d="M116.89,30.32a1.69,1.69,0,0,1,.26,1.1V33.2c2,.13,3.88.28,5.71.44V26h-8.59v4L116,30A1.24,1.24,0,0,1,116.89,30.32Z"/><path class="cls-2" d="M119.46,22.79a3.7,3.7,0,0,0,2.66-1,3.33,3.33,0,0,0,1-2.52,3.48,3.48,0,0,0-1-2.57,3.6,3.6,0,0,0-2.66-1,3.49,3.49,0,0,0-3.65,3.6,3.37,3.37,0,0,0,1,2.52A3.62,3.62,0,0,0,119.46,22.79Z"/><path class="cls-2" d="M91.33,32.39h3.08c.07-.15.13-.31.21-.45a5,5,0,0,1,4.63-2.54,8.89,8.89,0,0,1,3.65.77v2.36q2.9.08,5.62.19V15.88H99.59v3.79l2.06.14q1.25.1,1.25,1.15v4.85A13.32,13.32,0,0,0,99,25.24,10.56,10.56,0,0,0,90.35,29a12.37,12.37,0,0,0-2,3.42Z"/><path class="cls-2" d="M75.13,30.35a1.7,1.7,0,0,1,.26,1.08v1.14l5.71-.1V26H72.66v3.94l1.54.1A1.31,1.31,0,0,1,75.13,30.35Z"/><path class="cls-2" d="M61,31.33v1.72c1.84-.09,3.75-.16,5.71-.23V26H58.26v3.94l1.54.1Q61,30,61,31.33Z"/><path class="cls-2" d="M44.15,34.11c1.81-.15,3.72-.29,5.71-.43V30h5.9l.48-4H49.86V20.87H46.74a14.23,14.23,0,0,1-2.11,4,4.68,4.68,0,0,1-3.41,1.61L40.74,30h3.41Z"/><path class="cls-2" d="M30.59,35.47a14.15,14.15,0,0,1-2.67-1,3,3,0,0,1-1.13-1,3.27,3.27,0,0,1-.36-1.68,2.22,2.22,0,0,1,1-1.82A4.24,4.24,0,0,1,30,29.17a8,8,0,0,1,2.78.43,1.61,1.61,0,0,1,1.1,1.63v2l4.32-.34V27.16a18,18,0,0,0-7.94-1.92,10.64,10.64,0,0,0-6.65,2A6.79,6.79,0,0,0,21,33a7.05,7.05,0,0,0,.88,3.69C24.16,36.31,27.05,35.9,30.59,35.47Z"/></g><path class="cls-2" d="M249.49,51.82a3.45,3.45,0,0,1-2.59-.94,3.36,3.36,0,0,1-.91-2.45,3.48,3.48,0,0,1,.94-2.5,3.35,3.35,0,0,1,2.54-1,3.52,3.52,0,0,1,2.57.94,3.27,3.27,0,0,1,1,2.45,3.53,3.53,0,0,1-.91,2.5A3.36,3.36,0,0,1,249.49,51.82Z"/><path class="cls-2" d="M240,46.06v-.19c-1.76.14-4,.21-6.65.23a3.49,3.49,0,0,1-.26.27,4.78,4.78,0,0,1-3.26,1.13A4.36,4.36,0,0,1,226.35,46c-2.12,0-4.35-.11-6.66-.18a12.48,12.48,0,0,0,1.05,2.22q2.21,3.65,7.68,3.65a7.16,7.16,0,0,0,6.53-3.5l.14,0V51.1h7.78V47.26l-1.68-.1A1,1,0,0,1,240,46.06Z"/><path class="cls-2" d="M212.82,46.81a1.59,1.59,0,0,1-.24-1v-.18L206,45.3a4.63,4.63,0,0,1-4.13,2q-2.26,0-3-1.3a4.87,4.87,0,0,1-.4-1.07l-5.37-.27-.61,0q.53,7.08,7.39,7.08A8.9,8.9,0,0,0,207.69,48V51.1h7.78V47.31l-1.68-.14A1.59,1.59,0,0,1,212.82,46.81Z"/><path class="cls-2" d="M179.94,44a4.71,4.71,0,0,1-4.7,3.46,8.93,8.93,0,0,1-4.22-1v-3c-1.85-.21-3.69-.49-5.57-.83v7a15.79,15.79,0,0,0,4.3,1.46,24.73,24.73,0,0,0,5.26.6q8.49,0,10.76-7.42Z"/><path class="cls-2" d="M144.65,38.51c0,.21,0,.42,0,.64q0,8.45-5.23,8.45a4.67,4.67,0,0,1-2.74-.77q-2.5-1.73-2.5-8.5c0-.51,0-1,.07-1.44q-2.71-.36-5.68-.69a20.07,20.07,0,0,0-.2,2.8q0,6.34,2.83,9.58a9.87,9.87,0,0,0,7.85,3.24,10.82,10.82,0,0,0,8.23-3.41q2.9-3.08,3.18-8.79C148.65,39.25,146.71,38.88,144.65,38.51Z"/><path class="cls-2" d="M122.87,35.65c-1.83-.16-3.73-.31-5.71-.44V45.77a1.38,1.38,0,0,1-1.39,1.54l-1.58.14V51.1H125.6V47.26l-2.74-.14Z"/><path class="cls-2" d="M108.52,46.06V34.74q-2.72-.11-5.62-.19v9.07a3.52,3.52,0,0,1-1.3,2.76,4.79,4.79,0,0,1-3.26,1.13q-5.18,0-5.18-8.06a14.49,14.49,0,0,1,.8-5H88A19,19,0,0,0,87.25,40a15.32,15.32,0,0,0,2,8.11q2.21,3.65,7.68,3.65a7.16,7.16,0,0,0,6.53-3.5l.14,0V51.1h7.78V47.26l-1.68-.1A1,1,0,0,1,108.52,46.06Z"/><path class="cls-2" d="M81.35,46.81a1.59,1.59,0,0,1-.24-1V34.47l-5.71.1v8A4.62,4.62,0,0,1,74,45.92a4.85,4.85,0,0,1-3.62,1.39q-2.26,0-3-1.3a8.1,8.1,0,0,1-.72-3.84V34.82c-2,.07-3.88.15-5.71.23v8.37q0,8.31,7.44,8.3A8.9,8.9,0,0,0,76.21,48V51.1H84V47.31l-1.68-.14A1.6,1.6,0,0,1,81.35,46.81Z"/><path class="cls-2" d="M53,47.41a3.06,3.06,0,0,1-2.37-.84,4.38,4.38,0,0,1-.77-3V35.69c-2,.14-3.9.28-5.71.43v7.69q0,1.44,0,2.18a9.85,9.85,0,0,0,.43,2,4.29,4.29,0,0,0,1.1,2,6.62,6.62,0,0,0,2.21,1.22,10.56,10.56,0,0,0,3.65.55,10.39,10.39,0,0,0,6.1-1.68l-1.44-3.7A6.13,6.13,0,0,1,53,47.41Z"/><path class="cls-2" d="M35.34,38.14a14.76,14.76,0,0,0-2-.89l-.22-.07c-4.33.49-7.81,1-10.48,1.39a5,5,0,0,0,.86.72,14.73,14.73,0,0,0,2.28,1.18,18,18,0,0,0,1.92.65l1.82.48q.94.24,1.61.48a4,4,0,0,1,1.37.91,2.3,2.3,0,0,1,.7,1.73q0,2.93-4,2.93t-4-2.11v-2.3l-4.32.34v6.67q3,1.49,8.83,1.49a10.49,10.49,0,0,0,6.65-2A6.76,6.76,0,0,0,38.87,44a6.37,6.37,0,0,0-1.68-4.56A6.06,6.06,0,0,0,35.34,38.14Z"/></svg>